<svg width="90" height="90" viewBox="0 0 90 90" fill="none" xmlns="http://www.w3.org/2000/svg">
<mask id="mask0_461_4280" style="mask-type:alpha" maskUnits="userSpaceOnUse" x="0" y="0" width="90" height="90">
<rect width="90" height="90" fill="#D9D9D9"/>
</mask>
<g mask="url(#mask0_461_4280)">
<path d="M18.75 78.75C16.6875 78.75 14.9219 78.0156 13.4531 76.5469C11.9844 75.0781 11.25 73.3125 11.25 71.25V18.75C11.25 16.6875 11.9844 14.9219 13.4531 13.4531C14.9219 11.9844 16.6875 11.25 18.75 11.25H48.75V18.75H18.75V71.25H71.25V41.25H78.75V71.25C78.75 73.3125 78.0156 75.0781 76.5469 76.5469C75.0781 78.0156 73.3125 78.75 71.25 78.75H18.75ZM22.5 63.75H67.5L53.4375 45L42.1875 60L33.75 48.75L22.5 63.75ZM63.75 33.75V26.25H56.25V18.75H63.75V11.25H71.25V18.75H78.75V26.25H71.25V33.75H63.75Z" fill="#919191"/>
</g>
</svg>
