<svg width="31" height="31" viewBox="0 0 31 31" fill="none" xmlns="http://www.w3.org/2000/svg">
<mask id="mask0_587_2449" style="mask-type:alpha" maskUnits="userSpaceOnUse" x="0" y="0" width="31" height="31">
<rect width="31" height="31" fill="#D9D9D9"/>
</mask>
<g mask="url(#mask0_587_2449)">
<path d="M21.9583 19.3743C21.0542 19.3743 20.2899 19.0622 19.6656 18.4379C19.0413 17.8136 18.7292 17.0493 18.7292 16.1452C18.7292 15.241 19.0413 14.4768 19.6656 13.8525C20.2899 13.2282 21.0542 12.916 21.9583 12.916C22.8625 12.916 23.6267 13.2282 24.251 13.8525C24.8754 14.4768 25.1875 15.241 25.1875 16.1452C25.1875 17.0493 24.8754 17.8136 24.251 18.4379C23.6267 19.0622 22.8625 19.3743 21.9583 19.3743ZM15.5 25.8327V24.0243C15.5 23.5077 15.6346 23.0287 15.9036 22.5874C16.1727 22.146 16.5549 21.8285 17.05 21.6348C17.825 21.3118 18.6269 21.0697 19.4557 20.9082C20.2846 20.7467 21.1188 20.666 21.9583 20.666C22.7979 20.666 23.6321 20.7467 24.4609 20.9082C25.2898 21.0697 26.0917 21.3118 26.8667 21.6348C27.3618 21.8285 27.7439 22.146 28.013 22.5874C28.2821 23.0287 28.4167 23.5077 28.4167 24.0243V25.8327H15.5ZM12.9167 15.4993C11.4958 15.4993 10.2795 14.9934 9.26771 13.9816C8.25591 12.9698 7.75 11.7535 7.75 10.3327C7.75 8.91185 8.25591 7.69553 9.26771 6.68372C10.2795 5.67192 11.4958 5.16602 12.9167 5.16602C14.3375 5.16602 15.5538 5.67192 16.5656 6.68372C17.5774 7.69553 18.0833 8.91185 18.0833 10.3327C18.0833 11.7535 17.5774 12.9698 16.5656 13.9816C15.5538 14.9934 14.3375 15.4993 12.9167 15.4993ZM2.58334 25.8327V22.216C2.58334 21.4841 2.76632 20.8113 3.13229 20.1978C3.49827 19.5842 4.00417 19.116 4.65 18.7931C5.94167 18.1473 7.28177 17.6521 8.67032 17.3077C10.0589 16.9632 11.4743 16.791 12.9167 16.791C13.6701 16.791 14.4236 16.8556 15.1771 16.9848C15.9306 17.1139 16.684 17.2646 17.4375 17.4368L15.2417 19.6327C14.8542 19.525 14.4667 19.4551 14.0792 19.4228C13.6917 19.3905 13.3042 19.3743 12.9167 19.3743C11.6681 19.3743 10.4464 19.525 9.25157 19.8264C8.05677 20.1278 6.91042 20.5584 5.8125 21.1181C5.59722 21.2257 5.43577 21.3764 5.32813 21.5702C5.22049 21.7639 5.16667 21.9792 5.16667 22.216V23.2493H12.9167V25.8327H2.58334ZM12.9167 12.916C13.6271 12.916 14.2352 12.6631 14.7411 12.1572C15.2471 11.6513 15.5 11.0431 15.5 10.3327C15.5 9.62227 15.2471 9.01411 14.7411 8.5082C14.2352 8.0023 13.6271 7.74935 12.9167 7.74935C12.2063 7.74935 11.5981 8.0023 11.0922 8.5082C10.5863 9.01411 10.3333 9.62227 10.3333 10.3327C10.3333 11.0431 10.5863 11.6513 11.0922 12.1572C11.5981 12.6631 12.2063 12.916 12.9167 12.916Z" fill="#1A1A1A"/>
</g>
</svg>
