<svg width="18" height="18" viewBox="0 0 18 18" fill="none" xmlns="http://www.w3.org/2000/svg">
<mask id="mask0_384_692" style="mask-type:alpha" maskUnits="userSpaceOnUse" x="0" y="0" width="18" height="18">
<rect width="18" height="18" fill="#D9D9D9"/>
</mask>
<g mask="url(#mask0_384_692)">
<path d="M3.00012 15C2.58762 15 2.2345 14.8531 1.94075 14.5594C1.647 14.2656 1.50012 13.9125 1.50012 13.5V4.5C1.50012 4.0875 1.647 3.73438 1.94075 3.44063C2.2345 3.14688 2.58762 3 3.00012 3H15.0001C15.4126 3 15.7657 3.14688 16.0595 3.44063C16.3532 3.73438 16.5001 4.0875 16.5001 4.5V13.5C16.5001 13.9125 16.3532 14.2656 16.0595 14.5594C15.7657 14.8531 15.4126 15 15.0001 15H3.00012ZM9.00012 9.75L3.00012 6V13.5H15.0001V6L9.00012 9.75ZM9.00012 8.25L15.0001 4.5H3.00012L9.00012 8.25ZM3.00012 6V4.5V13.5V6Z" fill="#BFBFBF"/>
</g>
</svg>
