<svg width="16" height="16" viewBox="0 0 16 16" fill="none" xmlns="http://www.w3.org/2000/svg">
<mask id="mask0_579_1952" style="mask-type:alpha" maskUnits="userSpaceOnUse" x="0" y="0" width="16" height="16">
<rect width="16" height="16" fill="#D9D9D9"/>
</mask>
<g mask="url(#mask0_579_1952)">
<path d="M6.60002 10.3333L8.00002 8.93325L9.40002 10.3333L10.3334 9.39992L8.93335 7.99992L10.3334 6.59992L9.40002 5.66658L8.00002 7.06659L6.60002 5.66658L5.66669 6.59992L7.06669 7.99992L5.66669 9.39992L6.60002 10.3333ZM8.00002 14.6666C6.45558 14.2777 5.18058 13.3916 4.17502 12.0083C3.16946 10.6249 2.66669 9.08881 2.66669 7.39992V3.33325L8.00002 1.33325L13.3334 3.33325V7.39992C13.3334 9.08881 12.8306 10.6249 11.825 12.0083C10.8195 13.3916 9.54447 14.2777 8.00002 14.6666ZM8.00002 13.2666C9.15558 12.8999 10.1111 12.1666 10.8667 11.0666C11.6222 9.96659 12 8.74436 12 7.39992V4.24992L8.00002 2.74992L4.00002 4.24992V7.39992C4.00002 8.74436 4.3778 9.96659 5.13335 11.0666C5.88891 12.1666 6.84446 12.8999 8.00002 13.2666Z" fill="#FF8173"/>
</g>
</svg>
