<svg width="29" height="29" viewBox="0 0 29 29" fill="none" xmlns="http://www.w3.org/2000/svg">
<path d="M22.2031 0H6.79688C3.04306 0 0 3.04306 0 6.79688V22.2031C0 25.9569 3.04306 29 6.79688 29H22.2031C25.9569 29 29 25.9569 29 22.2031V6.79688C29 3.04306 25.9569 0 22.2031 0Z" fill="white"/>
<path d="M22.2031 0H6.79688C3.04306 0 0 3.04306 0 6.79688V22.2031C0 25.9569 3.04306 29 6.79688 29H22.2031C25.9569 29 29 25.9569 29 22.2031V6.79688C29 3.04306 25.9569 0 22.2031 0Z" fill="#0A66C2"/>
<path d="M20.9247 24.6596H24.2405C24.3606 24.6596 24.4759 24.6119 24.5609 24.527C24.6458 24.442 24.6936 24.3268 24.6936 24.2066L24.6953 17.2011C24.6953 13.5395 23.9063 10.725 19.6273 10.725C18.0007 10.6645 16.4668 11.503 15.639 12.9032C15.635 12.91 15.6288 12.9153 15.6215 12.9183C15.6142 12.9212 15.6061 12.9217 15.5984 12.9196C15.5908 12.9176 15.584 12.9131 15.5792 12.9068C15.5744 12.9005 15.5717 12.8929 15.5716 12.8849V11.5162C15.5716 11.396 15.5239 11.2807 15.4389 11.1958C15.3539 11.1108 15.2387 11.063 15.1185 11.063H11.9719C11.8517 11.063 11.7365 11.1108 11.6515 11.1958C11.5665 11.2807 11.5188 11.396 11.5188 11.5162V24.2059C11.5188 24.3261 11.5665 24.4414 11.6515 24.5263C11.7365 24.6113 11.8517 24.6591 11.9719 24.6591H15.2874C15.4076 24.6591 15.5228 24.6113 15.6078 24.5263C15.6928 24.4414 15.7405 24.3261 15.7405 24.2059V17.9332C15.7405 16.1596 16.077 14.4419 18.2759 14.4419C20.4435 14.4419 20.4716 16.4714 20.4716 18.0481V24.2065C20.4716 24.3267 20.5194 24.4419 20.6043 24.5269C20.6893 24.6119 20.8046 24.6596 20.9247 24.6596ZM4.30469 6.75473C4.30469 8.0987 5.41111 9.20455 6.75519 9.20455C8.09893 9.20444 9.20467 8.09791 9.20467 6.75417C9.20444 5.41043 8.09859 4.30469 6.75473 4.30469C5.41054 4.30469 4.30469 5.41077 4.30469 6.75473ZM5.09301 24.6596H8.41295C8.53312 24.6596 8.64838 24.6119 8.73335 24.5269C8.81833 24.4419 8.86607 24.3267 8.86607 24.2065V11.5162C8.86607 11.396 8.81833 11.2807 8.73335 11.1958C8.64838 11.1108 8.53312 11.063 8.41295 11.063H5.09301C4.97284 11.063 4.85758 11.1108 4.7726 11.1958C4.68763 11.2807 4.63989 11.396 4.63989 11.5162V24.2065C4.63989 24.3267 4.68763 24.4419 4.7726 24.5269C4.85758 24.6119 4.97284 24.6596 5.09301 24.6596Z" fill="white"/>
</svg>
