<svg width="31" height="31" viewBox="0 0 31 31" fill="none" xmlns="http://www.w3.org/2000/svg">
<path d="M27.125 12.916C27.125 21.9577 15.5 29.7077 15.5 29.7077C15.5 29.7077 3.875 21.9577 3.875 12.916C3.875 9.83287 5.09977 6.87601 7.27988 4.6959C9.45999 2.51579 12.4169 1.29102 15.5 1.29102C18.5831 1.29102 21.54 2.51579 23.7201 4.6959C25.9002 6.87601 27.125 9.83287 27.125 12.916Z" stroke="#1A1A1A" stroke-width="2.58333" stroke-linecap="round" stroke-linejoin="round"/>
<path d="M15.5 16.791C17.6401 16.791 19.375 15.0561 19.375 12.916C19.375 10.7759 17.6401 9.04102 15.5 9.04102C13.3599 9.04102 11.625 10.7759 11.625 12.916C11.625 15.0561 13.3599 16.791 15.5 16.791Z" stroke="#1A1A1A" stroke-width="2.58333" stroke-linecap="round" stroke-linejoin="round"/>
</svg>
