<svg width="65" height="65" viewBox="0 0 65 65" fill="none" xmlns="http://www.w3.org/2000/svg">
<mask id="mask0_461_4351" style="mask-type:alpha" maskUnits="userSpaceOnUse" x="0" y="0" width="65" height="65">
<rect width="65" height="65" fill="#D9D9D9"/>
</mask>
<g mask="url(#mask0_461_4351)">
<path d="M20.177 34.1244L29.8593 27.0827L20.177 20.041L17.7395 23.291L22.9531 27.0827L17.7395 30.8744L20.177 34.1244ZM44.8229 34.1244L47.2604 30.8744L42.0468 27.0827L47.2604 23.291L44.8229 20.041L35.1406 27.0827L44.8229 34.1244ZM28.4375 46.1764L32.5 42.1139L36.5625 46.1764L40.625 42.1139L43.2656 44.7546L46.1093 41.9108L40.625 36.4264L36.5625 40.4889L32.5 36.4264L28.4375 40.4889L24.375 36.4264L18.8906 41.9108L21.7343 44.7546L24.375 42.1139L28.4375 46.1764ZM32.5 59.5827C28.7534 59.5827 25.2326 58.8717 21.9375 57.4499C18.6423 56.028 15.776 54.0983 13.3385 51.6608C10.901 49.2233 8.97131 46.357 7.54944 43.0619C6.12756 39.7667 5.41663 36.2459 5.41663 32.4994C5.41663 28.7528 6.12756 25.232 7.54944 21.9368C8.97131 18.6417 10.901 15.7754 13.3385 13.3379C15.776 10.9004 18.6423 8.9707 21.9375 7.54883C25.2326 6.12695 28.7534 5.41602 32.5 5.41602C36.2465 5.41602 39.7673 6.12695 43.0625 7.54883C46.3576 8.9707 49.2239 10.9004 51.6614 13.3379C54.0989 15.7754 56.0286 18.6417 57.4505 21.9368C58.8724 25.232 59.5833 28.7528 59.5833 32.4994C59.5833 36.2459 58.8724 39.7667 57.4505 43.0619C56.0286 46.357 54.0989 49.2233 51.6614 51.6608C49.2239 54.0983 46.3576 56.028 43.0625 57.4499C39.7673 58.8717 36.2465 59.5827 32.5 59.5827ZM32.5 54.166C38.5486 54.166 43.6718 52.0671 47.8698 47.8691C52.0677 43.6712 54.1666 38.548 54.1666 32.4994C54.1666 26.4507 52.0677 21.3275 47.8698 17.1296C43.6718 12.9316 38.5486 10.8327 32.5 10.8327C26.4513 10.8327 21.3281 12.9316 17.1302 17.1296C12.9323 21.3275 10.8333 26.4507 10.8333 32.4994C10.8333 38.548 12.9323 43.6712 17.1302 47.8691C21.3281 52.0671 26.4513 54.166 32.5 54.166Z" fill="#6F9FFE"/>
</g>
</svg>
