<svg width="65" height="65" viewBox="0 0 65 65" fill="none" xmlns="http://www.w3.org/2000/svg">
<mask id="mask0_461_4347" style="mask-type:alpha" maskUnits="userSpaceOnUse" x="0" y="0" width="65" height="65">
<rect width="65" height="65" fill="#D9D9D9"/>
</mask>
<g mask="url(#mask0_461_4347)">
<path d="M41.9791 29.791C43.1076 29.791 44.0668 29.3961 44.8567 28.6061C45.6467 27.8162 46.0416 26.857 46.0416 25.7285C46.0416 24.6 45.6467 23.6408 44.8567 22.8509C44.0668 22.061 43.1076 21.666 41.9791 21.666C40.8507 21.666 39.8915 22.061 39.1015 22.8509C38.3116 23.6408 37.9166 24.6 37.9166 25.7285C37.9166 26.857 38.3116 27.8162 39.1015 28.6061C39.8915 29.3961 40.8507 29.791 41.9791 29.791ZM23.0208 29.791C24.1493 29.791 25.1085 29.3961 25.8984 28.6061C26.6883 27.8162 27.0833 26.857 27.0833 25.7285C27.0833 24.6 26.6883 23.6408 25.8984 22.8509C25.1085 22.061 24.1493 21.666 23.0208 21.666C21.8923 21.666 20.9331 22.061 20.1432 22.8509C19.3533 23.6408 18.9583 24.6 18.9583 25.7285C18.9583 26.857 19.3533 27.8162 20.1432 28.6061C20.9331 29.3961 21.8923 29.791 23.0208 29.791ZM32.5 36.5619C29.4305 36.5619 26.6432 37.4308 24.138 39.1686C21.6328 40.9065 19.8159 43.1973 18.6875 46.041H23.1562C24.1493 44.3709 25.4696 43.0506 27.1171 42.0801C28.7647 41.1096 30.559 40.6244 32.5 40.6244C34.4409 40.6244 36.2352 41.1096 37.8828 42.0801C39.5303 43.0506 40.8507 44.3709 41.8437 46.041H46.3125C45.184 43.1973 43.3671 40.9065 40.8619 39.1686C38.3567 37.4308 35.5694 36.5619 32.5 36.5619ZM32.5 59.5827C28.7534 59.5827 25.2326 58.8717 21.9375 57.4499C18.6423 56.028 15.776 54.0983 13.3385 51.6608C10.901 49.2233 8.97131 46.357 7.54944 43.0619C6.12756 39.7667 5.41663 36.2459 5.41663 32.4994C5.41663 28.7528 6.12756 25.232 7.54944 21.9368C8.97131 18.6417 10.901 15.7754 13.3385 13.3379C15.776 10.9004 18.6423 8.9707 21.9375 7.54883C25.2326 6.12695 28.7534 5.41602 32.5 5.41602C36.2465 5.41602 39.7673 6.12695 43.0625 7.54883C46.3576 8.9707 49.2239 10.9004 51.6614 13.3379C54.0989 15.7754 56.0286 18.6417 57.4505 21.9368C58.8724 25.232 59.5833 28.7528 59.5833 32.4994C59.5833 36.2459 58.8724 39.7667 57.4505 43.0619C56.0286 46.357 54.0989 49.2233 51.6614 51.6608C49.2239 54.0983 46.3576 56.028 43.0625 57.4499C39.7673 58.8717 36.2465 59.5827 32.5 59.5827ZM32.5 54.166C38.5486 54.166 43.6718 52.0671 47.8698 47.8691C52.0677 43.6712 54.1666 38.548 54.1666 32.4994C54.1666 26.4507 52.0677 21.3275 47.8698 17.1296C43.6718 12.9316 38.5486 10.8327 32.5 10.8327C26.4513 10.8327 21.3281 12.9316 17.1302 17.1296C12.9323 21.3275 10.8333 26.4507 10.8333 32.4994C10.8333 38.548 12.9323 43.6712 17.1302 47.8691C21.3281 52.0671 26.4513 54.166 32.5 54.166Z" fill="#F24148"/>
</g>
</svg>
