<svg width="26" height="32" viewBox="0 0 26 32" fill="none" xmlns="http://www.w3.org/2000/svg">
<path d="M0 27.2V24H3.2V12.8C3.2 10.5867 3.86667 8.62 5.2 6.9C6.53333 5.18 8.26667 4.05333 10.4 3.52V2.4C10.4 1.73333 10.6333 1.16667 11.1 0.7C11.5667 0.233333 12.1333 0 12.8 0C13.4667 0 14.0333 0.233333 14.5 0.7C14.9667 1.16667 15.2 1.73333 15.2 2.4V3.52C17.3333 4.05333 19.0667 5.18 20.4 6.9C21.7333 8.62 22.4 10.5867 22.4 12.8V24H25.6V27.2H0ZM12.8 32C11.92 32 11.1667 31.6867 10.54 31.06C9.91333 30.4333 9.6 29.68 9.6 28.8H16C16 29.68 15.6867 30.4333 15.06 31.06C14.4333 31.6867 13.68 32 12.8 32ZM6.4 24H19.2V12.8C19.2 11.04 18.5733 9.53333 17.32 8.28C16.0667 7.02667 14.56 6.4 12.8 6.4C11.04 6.4 9.53333 7.02667 8.28 8.28C7.02667 9.53333 6.4 11.04 6.4 12.8V24Z" fill="#595959"/>
</svg>
