<svg width="24" height="24" viewBox="0 0 24 24" fill="none" xmlns="http://www.w3.org/2000/svg">
<mask id="mask0_461_4231" style="mask-type:alpha" maskUnits="userSpaceOnUse" x="0" y="0" width="25" height="25">
<rect width="24.002" height="24.002" fill="#D9D9D9"/>
</mask>
<g mask="url(#mask0_461_4231)">
<path d="M9.50061 16.5012L16.5012 12.0008L9.50061 7.50045V16.5012ZM12.0008 22.0016C10.6174 22.0016 9.31726 21.7391 8.1005 21.2141C6.88373 20.689 5.82531 19.9765 4.92524 19.0764C4.02516 18.1763 3.31261 17.1179 2.78756 15.9011C2.26252 14.6844 2 13.3843 2 12.0008C2 10.6174 2.26252 9.31726 2.78756 8.1005C3.31261 6.88373 4.02516 5.82531 4.92524 4.92524C5.82531 4.02516 6.88373 3.31261 8.1005 2.78756C9.31726 2.26252 10.6174 2 12.0008 2C13.3843 2 14.6844 2.26252 15.9011 2.78756C17.1179 3.31261 18.1763 4.02516 19.0764 4.92524C19.9765 5.82531 20.689 6.88373 21.2141 8.1005C21.7391 9.31726 22.0016 10.6174 22.0016 12.0008C22.0016 13.3843 21.7391 14.6844 21.2141 15.9011C20.689 17.1179 19.9765 18.1763 19.0764 19.0764C18.1763 19.9765 17.1179 20.689 15.9011 21.2141C14.6844 21.7391 13.3843 22.0016 12.0008 22.0016ZM12.0008 20.0015C14.2343 20.0015 16.1261 19.2264 17.6763 17.6763C19.2264 16.1261 20.0015 14.2343 20.0015 12.0008C20.0015 9.7673 19.2264 7.87548 17.6763 6.32535C16.1261 4.77523 14.2343 4.00016 12.0008 4.00016C9.7673 4.00016 7.87548 4.77523 6.32535 6.32535C4.77523 7.87548 4.00016 9.7673 4.00016 12.0008C4.00016 14.2343 4.77523 16.1261 6.32535 17.6763C7.87548 19.2264 9.7673 20.0015 12.0008 20.0015Z" fill="#6F9FFE"/>
</g>
</svg>
