<svg width="31" height="31" viewBox="0 0 31 31" fill="none" xmlns="http://www.w3.org/2000/svg">
<mask id="mask0_587_2788" style="mask-type:alpha" maskUnits="userSpaceOnUse" x="0" y="0" width="31" height="31">
<rect width="31" height="31" fill="#D9D9D9"/>
</mask>
<g mask="url(#mask0_587_2788)">
<path d="M12.2705 19.7292L21.3122 13.9167L12.2705 8.10417V19.7292ZM15.4997 26.8333C13.7129 26.8333 12.0337 26.4943 10.4622 25.8161C8.89065 25.138 7.52363 24.2177 6.36113 23.0552C5.19863 21.8927 4.27832 20.5257 3.6002 18.9542C2.92207 17.3826 2.58301 15.7035 2.58301 13.9167C2.58301 12.1299 2.92207 10.4507 3.6002 8.87917C4.27832 7.30764 5.19863 5.94062 6.36113 4.77812C7.52363 3.61562 8.89065 2.69531 10.4622 2.01719C12.0337 1.33906 13.7129 1 15.4997 1C17.2865 1 18.9656 1.33906 20.5372 2.01719C22.1087 2.69531 23.4757 3.61562 24.6382 4.77812C25.8007 5.94062 26.721 7.30764 27.3992 8.87917C28.0773 10.4507 28.4163 12.1299 28.4163 13.9167C28.4163 15.7035 28.0773 17.3826 27.3992 18.9542C26.721 20.5257 25.8007 21.8927 24.6382 23.0552C23.4757 24.2177 22.1087 25.138 20.5372 25.8161C18.9656 26.4943 17.2865 26.8333 15.4997 26.8333ZM15.4997 24.25C18.3844 24.25 20.8278 23.249 22.8299 21.2469C24.832 19.2448 25.833 16.8014 25.833 13.9167C25.833 11.0319 24.832 8.58854 22.8299 6.58646C20.8278 4.58438 18.3844 3.58333 15.4997 3.58333C12.615 3.58333 10.1715 4.58438 8.16947 6.58646C6.16738 8.58854 5.16634 11.0319 5.16634 13.9167C5.16634 16.8014 6.16738 19.2448 8.16947 21.2469C10.1715 23.249 12.615 24.25 15.4997 24.25Z" fill="#1A1A1A"/>
</g>
</svg>
