<svg width="65" height="65" viewBox="0 0 65 65" fill="none" xmlns="http://www.w3.org/2000/svg">
<mask id="mask0_461_4312" style="mask-type:alpha" maskUnits="userSpaceOnUse" x="0" y="0" width="65" height="65">
<rect width="65" height="65" fill="#D9D9D9"/>
</mask>
<g mask="url(#mask0_461_4312)">
<path d="M41.979 29.791C43.1075 29.791 44.0667 29.3961 44.8566 28.6061C45.6465 27.8162 46.0415 26.857 46.0415 25.7285C46.0415 24.6 45.6465 23.6408 44.8566 22.8509C44.0667 22.061 43.1075 21.666 41.979 21.666C40.8505 21.666 39.8913 22.061 39.1014 22.8509C38.3115 23.6408 37.9165 24.6 37.9165 25.7285C37.9165 26.857 38.3115 27.8162 39.1014 28.6061C39.8913 29.3961 40.8505 29.791 41.979 29.791ZM23.0207 29.791C24.1491 29.791 25.1083 29.3961 25.8983 28.6061C26.6882 27.8162 27.0832 26.857 27.0832 25.7285C27.0832 24.6 26.6882 23.6408 25.8983 22.8509C25.1083 22.061 24.1491 21.666 23.0207 21.666C21.8922 21.666 20.933 22.061 20.1431 22.8509C19.3531 23.6408 18.9582 24.6 18.9582 25.7285C18.9582 26.857 19.3531 27.8162 20.1431 28.6061C20.933 29.3961 21.8922 29.791 23.0207 29.791ZM32.4998 36.5619C29.4304 36.5619 26.6431 37.4308 24.1379 39.1686C21.6327 40.9065 19.8158 43.1973 18.6873 46.041H23.1561C24.1491 44.3709 25.4695 43.0506 27.117 42.0801C28.7646 41.1096 30.5589 40.6244 32.4998 40.6244C34.4408 40.6244 36.2351 41.1096 37.8827 42.0801C39.5302 43.0506 40.8505 44.3709 41.8436 46.041H46.3123C45.1839 43.1973 43.367 40.9065 40.8618 39.1686C38.3566 37.4308 35.5693 36.5619 32.4998 36.5619ZM32.4998 59.5827C28.7533 59.5827 25.2325 58.8717 21.9373 57.4499C18.6422 56.028 15.7759 54.0983 13.3384 51.6608C10.9009 49.2233 8.97119 46.357 7.54932 43.0619C6.12744 39.7667 5.4165 36.2459 5.4165 32.4994C5.4165 28.7528 6.12744 25.232 7.54932 21.9368C8.97119 18.6417 10.9009 15.7754 13.3384 13.3379C15.7759 10.9004 18.6422 8.9707 21.9373 7.54883C25.2325 6.12695 28.7533 5.41602 32.4998 5.41602C36.2464 5.41602 39.7672 6.12695 43.0623 7.54883C46.3575 8.9707 49.2238 10.9004 51.6613 13.3379C54.0988 15.7754 56.0285 18.6417 57.4504 21.9368C58.8722 25.232 59.5832 28.7528 59.5832 32.4994C59.5832 36.2459 58.8722 39.7667 57.4504 43.0619C56.0285 46.357 54.0988 49.2233 51.6613 51.6608C49.2238 54.0983 46.3575 56.028 43.0623 57.4499C39.7672 58.8717 36.2464 59.5827 32.4998 59.5827ZM32.4998 54.166C38.5485 54.166 43.6717 52.0671 47.8696 47.8691C52.0676 43.6712 54.1665 38.548 54.1665 32.4994C54.1665 26.4507 52.0676 21.3275 47.8696 17.1296C43.6717 12.9316 38.5485 10.8327 32.4998 10.8327C26.4512 10.8327 21.328 12.9316 17.13 17.1296C12.9321 21.3275 10.8332 26.4507 10.8332 32.4994C10.8332 38.548 12.9321 43.6712 17.13 47.8691C21.328 52.0671 26.4512 54.166 32.4998 54.166Z" fill="#F24148"/>
</g>
</svg>
