<svg width="65" height="65" viewBox="0 0 65 65" fill="none" xmlns="http://www.w3.org/2000/svg">
<mask id="mask0_461_4306" style="mask-type:alpha" maskUnits="userSpaceOnUse" x="0" y="0" width="65" height="65">
<rect width="65" height="65" fill="#D9D9D9"/>
</mask>
<g mask="url(#mask0_461_4306)">
<path d="M20.1769 34.1244L29.8592 27.0827L20.1769 20.041L17.7394 23.291L22.953 27.0827L17.7394 30.8744L20.1769 34.1244ZM44.8228 34.1244L47.2603 30.8744L42.0467 27.0827L47.2603 23.291L44.8228 20.041L35.1405 27.0827L44.8228 34.1244ZM28.4373 46.1764L32.4998 42.1139L36.5623 46.1764L40.6248 42.1139L43.2655 44.7546L46.1092 41.9108L40.6248 36.4264L36.5623 40.4889L32.4998 36.4264L28.4373 40.4889L24.3748 36.4264L18.8905 41.9108L21.7342 44.7546L24.3748 42.1139L28.4373 46.1764ZM32.4998 59.5827C28.7533 59.5827 25.2325 58.8717 21.9373 57.4499C18.6422 56.028 15.7759 54.0983 13.3384 51.6608C10.9009 49.2233 8.97119 46.357 7.54932 43.0619C6.12744 39.7667 5.4165 36.2459 5.4165 32.4994C5.4165 28.7528 6.12744 25.232 7.54932 21.9368C8.97119 18.6417 10.9009 15.7754 13.3384 13.3379C15.7759 10.9004 18.6422 8.9707 21.9373 7.54883C25.2325 6.12695 28.7533 5.41602 32.4998 5.41602C36.2464 5.41602 39.7672 6.12695 43.0623 7.54883C46.3575 8.9707 49.2238 10.9004 51.6613 13.3379C54.0988 15.7754 56.0285 18.6417 57.4504 21.9368C58.8722 25.232 59.5832 28.7528 59.5832 32.4994C59.5832 36.2459 58.8722 39.7667 57.4504 43.0619C56.0285 46.357 54.0988 49.2233 51.6613 51.6608C49.2238 54.0983 46.3575 56.028 43.0623 57.4499C39.7672 58.8717 36.2464 59.5827 32.4998 59.5827ZM32.4998 54.166C38.5485 54.166 43.6717 52.0671 47.8696 47.8691C52.0676 43.6712 54.1665 38.548 54.1665 32.4994C54.1665 26.4507 52.0676 21.3275 47.8696 17.1296C43.6717 12.9316 38.5485 10.8327 32.4998 10.8327C26.4512 10.8327 21.328 12.9316 17.13 17.1296C12.9321 21.3275 10.8332 26.4507 10.8332 32.4994C10.8332 38.548 12.9321 43.6712 17.13 47.8691C21.328 52.0671 26.4512 54.166 32.4998 54.166Z" fill="#6F9FFE"/>
</g>
</svg>
