<svg width="65" height="65" viewBox="0 0 65 65" fill="none" xmlns="http://www.w3.org/2000/svg">
<mask id="mask0_461_4318" style="mask-type:alpha" maskUnits="userSpaceOnUse" x="0" y="0" width="65" height="65">
<rect width="65" height="65" fill="#D9D9D9"/>
</mask>
<g mask="url(#mask0_461_4318)">
<path d="M41.9795 29.791C43.108 29.791 44.0672 29.3961 44.8571 28.6061C45.647 27.8162 46.042 26.857 46.042 25.7285C46.042 24.6 45.647 23.6408 44.8571 22.8509C44.0672 22.061 43.108 21.666 41.9795 21.666C40.851 21.666 39.8918 22.061 39.1019 22.8509C38.312 23.6408 37.917 24.6 37.917 25.7285C37.917 26.857 38.312 27.8162 39.1019 28.6061C39.8918 29.3961 40.851 29.791 41.9795 29.791ZM23.0212 29.791C24.1496 29.791 25.1088 29.3961 25.8988 28.6061C26.6887 27.8162 27.0837 26.857 27.0837 25.7285C27.0837 24.6 26.6887 23.6408 25.8988 22.8509C25.1088 22.061 24.1496 21.666 23.0212 21.666C21.8927 21.666 20.9335 22.061 20.1436 22.8509C19.3536 23.6408 18.9587 24.6 18.9587 25.7285C18.9587 26.857 19.3536 27.8162 20.1436 28.6061C20.9335 29.3961 21.8927 29.791 23.0212 29.791ZM32.5003 47.3952C35.5698 47.3952 38.3571 46.5263 40.8623 44.7884C43.3675 43.0506 45.1844 40.7598 46.3128 37.916H41.8441C40.851 39.5862 39.5307 40.9065 37.8831 41.877C36.2356 42.8474 34.4413 43.3327 32.5003 43.3327C30.5594 43.3327 28.7651 42.8474 27.1175 41.877C25.4699 40.9065 24.1496 39.5862 23.1566 37.916H18.6878C19.8163 40.7598 21.6331 43.0506 24.1383 44.7884C26.6436 46.5263 29.4309 47.3952 32.5003 47.3952ZM32.5003 59.5827C28.7538 59.5827 25.233 58.8717 21.9378 57.4499C18.6427 56.028 15.7764 54.0983 13.3389 51.6608C10.9014 49.2233 8.97168 46.357 7.5498 43.0619C6.12793 39.7667 5.41699 36.2459 5.41699 32.4994C5.41699 28.7528 6.12793 25.232 7.5498 21.9368C8.97168 18.6417 10.9014 15.7754 13.3389 13.3379C15.7764 10.9004 18.6427 8.9707 21.9378 7.54883C25.233 6.12695 28.7538 5.41602 32.5003 5.41602C36.2469 5.41602 39.7677 6.12695 43.0628 7.54883C46.358 8.9707 49.2243 10.9004 51.6618 13.3379C54.0993 15.7754 56.029 18.6417 57.4508 21.9368C58.8727 25.232 59.5837 28.7528 59.5837 32.4994C59.5837 36.2459 58.8727 39.7667 57.4508 43.0619C56.029 46.357 54.0993 49.2233 51.6618 51.6608C49.2243 54.0983 46.358 56.028 43.0628 57.4499C39.7677 58.8717 36.2469 59.5827 32.5003 59.5827ZM32.5003 54.166C38.5489 54.166 43.6722 52.0671 47.8701 47.8691C52.068 43.6712 54.167 38.548 54.167 32.4994C54.167 26.4507 52.068 21.3275 47.8701 17.1296C43.6722 12.9316 38.5489 10.8327 32.5003 10.8327C26.4517 10.8327 21.3285 12.9316 17.1305 17.1296C12.9326 21.3275 10.8337 26.4507 10.8337 32.4994C10.8337 38.548 12.9326 43.6712 17.1305 47.8691C21.3285 52.0671 26.4517 54.166 32.5003 54.166Z" fill="#47B781"/>
</g>
</svg>
