<svg width="25" height="25" viewBox="0 0 25 25" fill="none" xmlns="http://www.w3.org/2000/svg">
<mask id="mask0_580_4023" style="mask-type:alpha" maskUnits="userSpaceOnUse" x="0" y="0" width="25" height="25">
<rect width="25" height="25" fill="#D9D9D9"/>
</mask>
<g mask="url(#mask0_580_4023)">
<path d="M20.6249 23.5415L17.4739 20.3905C17.0399 20.6682 16.5798 20.907 16.0937 21.1066C15.6076 21.3063 15.1041 21.4669 14.5833 21.5884V19.453C14.8263 19.3662 15.065 19.2794 15.2994 19.1925C15.5338 19.1057 15.7551 19.0016 15.9635 18.88L12.4999 15.4165V20.8332L7.29159 15.6248H3.12492V9.37484H6.45825L1.45825 4.37484L2.91659 2.9165L22.0833 22.0832L20.6249 23.5415ZM20.4166 17.4998L18.9062 15.9894C19.2013 15.4512 19.4227 14.887 19.5702 14.2967C19.7178 13.7064 19.7916 13.0988 19.7916 12.4738C19.7916 10.8419 19.3142 9.38352 18.3593 8.0988C17.4044 6.81407 16.1458 5.94602 14.5833 5.49463V3.35921C16.736 3.84532 18.4895 4.93473 19.8437 6.62744C21.1978 8.32015 21.8749 10.2689 21.8749 12.4738C21.8749 13.3939 21.7491 14.2794 21.4973 15.13C21.2456 15.9807 20.8853 16.7707 20.4166 17.4998ZM16.927 14.0103L14.5833 11.6665V8.28109C15.3992 8.66303 16.0372 9.23595 16.4973 9.99984C16.9574 10.7637 17.1874 11.5971 17.1874 12.4998C17.1874 12.7603 17.1657 13.0163 17.1223 13.2681C17.0789 13.5198 17.0138 13.7672 16.927 14.0103ZM12.4999 9.58317L9.79159 6.87484L12.4999 4.1665V9.58317ZM10.4166 15.7811V13.3332L8.54159 11.4582H5.20825V13.5415H8.177L10.4166 15.7811Z" fill="#595959"/>
</g>
</svg>
