<svg width="16" height="16" viewBox="0 0 16 16" fill="none" xmlns="http://www.w3.org/2000/svg">
<mask id="mask0_384_700" style="mask-type:alpha" maskUnits="userSpaceOnUse" x="0" y="0" width="16" height="16">
<rect width="16" height="16" fill="#D9D9D9"/>
</mask>
<g mask="url(#mask0_384_700)">
<path d="M7.29996 10.2614L11.0666 6.49469L10.1166 5.54469L7.29996 8.36136L5.89996 6.96136L4.94996 7.91136L7.29996 10.2614ZM7.99996 14.5614C6.45551 14.1725 5.18052 13.2864 4.17496 11.903C3.1694 10.5197 2.66663 8.98358 2.66663 7.29469V3.22803L7.99996 1.22803L13.3333 3.22803V7.29469C13.3333 8.98358 12.8305 10.5197 11.825 11.903C10.8194 13.2864 9.5444 14.1725 7.99996 14.5614ZM7.99996 13.1614C9.15552 12.7947 10.1111 12.0614 10.8666 10.9614C11.6222 9.86136 12 8.63914 12 7.29469V4.14469L7.99996 2.64469L3.99996 4.14469V7.29469C3.99996 8.63914 4.37774 9.86136 5.13329 10.9614C5.88885 12.0614 6.8444 12.7947 7.99996 13.1614Z" fill="#47B781"/>
</g>
</svg>
