<svg width="65" height="65" viewBox="0 0 65 65" fill="none" xmlns="http://www.w3.org/2000/svg">
<mask id="mask0_461_4341" style="mask-type:alpha" maskUnits="userSpaceOnUse" x="0" y="0" width="65" height="65">
<rect width="65" height="65" fill="#D9D9D9"/>
</mask>
<g mask="url(#mask0_461_4341)">
<path d="M41.9793 29.791C43.1077 29.791 44.0669 29.3961 44.8569 28.6061C45.6468 27.8162 46.0418 26.857 46.0418 25.7285C46.0418 24.6 45.6468 23.6408 44.8569 22.8509C44.0669 22.061 43.1077 21.666 41.9793 21.666C40.8508 21.666 39.8916 22.061 39.1016 22.8509C38.3117 23.6408 37.9167 24.6 37.9167 25.7285C37.9167 26.857 38.3117 27.8162 39.1016 28.6061C39.8916 29.3961 40.8508 29.791 41.9793 29.791ZM23.0209 29.791C24.1494 29.791 25.1086 29.3961 25.8985 28.6061C26.6884 27.8162 27.0834 26.857 27.0834 25.7285C27.0834 24.6 26.6884 23.6408 25.8985 22.8509C25.1086 22.061 24.1494 21.666 23.0209 21.666C21.8924 21.666 20.9332 22.061 20.1433 22.8509C19.3534 23.6408 18.9584 24.6 18.9584 25.7285C18.9584 26.857 19.3534 27.8162 20.1433 28.6061C20.9332 29.3961 21.8924 29.791 23.0209 29.791ZM32.5001 47.3952C35.5695 47.3952 38.3569 46.5263 40.8621 44.7884C43.3673 43.0506 45.1841 40.7598 46.3126 37.916H41.8438C40.8508 39.5862 39.5305 40.9065 37.8829 41.877C36.2353 42.8474 34.4411 43.3327 32.5001 43.3327C30.5591 43.3327 28.7648 42.8474 27.1173 41.877C25.4697 40.9065 24.1494 39.5862 23.1563 37.916H18.6876C19.8161 40.7598 21.6329 43.0506 24.1381 44.7884C26.6433 46.5263 29.4306 47.3952 32.5001 47.3952ZM32.5001 59.5827C28.7536 59.5827 25.2327 58.8717 21.9376 57.4499C18.6424 56.028 15.7761 54.0983 13.3386 51.6608C10.9011 49.2233 8.97144 46.357 7.54956 43.0619C6.12769 39.7667 5.41675 36.2459 5.41675 32.4994C5.41675 28.7528 6.12769 25.232 7.54956 21.9368C8.97144 18.6417 10.9011 15.7754 13.3386 13.3379C15.7761 10.9004 18.6424 8.9707 21.9376 7.54883C25.2327 6.12695 28.7536 5.41602 32.5001 5.41602C36.2466 5.41602 39.7674 6.12695 43.0626 7.54883C46.3577 8.9707 49.224 10.9004 51.6615 13.3379C54.099 15.7754 56.0287 18.6417 57.4506 21.9368C58.8725 25.232 59.5834 28.7528 59.5834 32.4994C59.5834 36.2459 58.8725 39.7667 57.4506 43.0619C56.0287 46.357 54.099 49.2233 51.6615 51.6608C49.224 54.0983 46.3577 56.028 43.0626 57.4499C39.7674 58.8717 36.2466 59.5827 32.5001 59.5827ZM32.5001 54.166C38.5487 54.166 43.672 52.0671 47.8699 47.8691C52.0678 43.6712 54.1668 38.548 54.1668 32.4994C54.1668 26.4507 52.0678 21.3275 47.8699 17.1296C43.672 12.9316 38.5487 10.8327 32.5001 10.8327C26.4515 10.8327 21.3282 12.9316 17.1303 17.1296C12.9324 21.3275 10.8334 26.4507 10.8334 32.4994C10.8334 38.548 12.9324 43.6712 17.1303 47.8691C21.3282 52.0671 26.4515 54.166 32.5001 54.166Z" fill="#47B781"/>
</g>
</svg>
